<?xml version="1.0" standalone="no"?>
<!DOCTYPE svg PUBLIC "-//W3C//DTD SVG 20010904//EN"
 "http://www.w3.org/TR/2001/REC-SVG-20010904/DTD/svg10.dtd">
<svg version="1.0" xmlns="http://www.w3.org/2000/svg"
 width="512.000000pt" height="585.000000pt" viewBox="0 0 512.000000 585.000000"
 preserveAspectRatio="xMidYMid meet">

<g transform="translate(0.000000,585.000000) scale(0.100000,-0.100000)"
fill="#000000" stroke="none">
<path fill="white" d="M1719 5831 c-173 -55 -287 -237 -243 -387 63 -219 216 -518 371 -727
36 -48 64 -89 62 -91 -2 -2 -45 -21 -95 -43 -179 -78 -370 -207 -563 -377
-684 -606 -1210 -1799 -1248 -2831 -26 -735 220 -1118 817 -1270 352 -90 736
-110 1945 -102 802 5 950 10 1215 43 593 73 916 277 1056 670 221 619 -17
1816 -536 2699 -330 561 -789 1004 -1230 1186 -30 12 -57 24 -59 25 -2 2 26
43 62 91 153 206 308 510 371 724 45 156 -74 341 -253 393 -48 14 -150 16
-835 15 -722 0 -785 -1 -837 -18z"/>
<path  d="M1719 5831 c-173 -55 -287 -237 -243 -387 63 -219 216 -518 371 -727
36 -48 64 -89 62 -91 -2 -2 -45 -21 -95 -43 -179 -78 -370 -207 -563 -377
-684 -606 -1210 -1799 -1248 -2831 -26 -735 220 -1118 817 -1270 352 -90 736
-110 1945 -102 802 5 950 10 1215 43 593 73 916 277 1056 670 221 619 -17
1816 -536 2699 -330 561 -789 1004 -1230 1186 -30 12 -57 24 -59 25 -2 2 26
43 62 91 153 206 308 510 371 724 45 156 -74 341 -253 393 -48 14 -150 16
-835 15 -722 0 -785 -1 -837 -18z m1561 -356 c0 -3 -31 -68 -68 -143 -98 -194
-176 -320 -306 -489 l-71 -92 -275 0 -275 0 -71 92 c-128 166 -248 361 -335
546 -21 46 -39 85 -39 87 0 2 324 4 720 4 396 0 720 -2 720 -5z m-468 -1111
c397 -75 780 -329 1102 -730 436 -543 754 -1340 826 -2073 13 -131 13 -445 0
-536 -55 -382 -252 -537 -775 -609 -273 -37 -410 -41 -1405 -41 -718 0 -1017
3 -1135 13 -751 62 -983 203 -1045 637 -15 107 -12 432 6 585 53 462 191 924
403 1357 416 848 1009 1356 1651 1417 80 7 287 -4 372 -20z"/>
<path  d="M2511 3649 c-51 -15 -79 -38 -106 -84 -23 -38 -25 -53 -25 -158 l0
-117 -32 0 c-112 -1 -265 -70 -356 -162 -297 -296 -169 -784 238 -913 44 -14
104 -19 310 -22 223 -5 260 -8 292 -24 116 -59 122 -233 10 -309 l-35 -25
-427 -5 -427 -5 -40 -27 c-84 -55 -107 -171 -50 -256 45 -69 73 -77 310 -80
l207 -3 0 -110 c0 -121 10 -158 56 -201 73 -68 188 -64 256 8 40 43 48 75 48
193 l0 109 75 11 c92 13 179 48 245 96 222 163 292 453 169 698 -37 73 -153
193 -219 227 -117 60 -136 63 -425 69 -177 4 -277 10 -290 18 -26 15 -69 62
-85 92 -18 36 -16 111 5 154 10 21 34 50 53 65 l35 27 426 5 c466 5 454 4 513
67 51 54 63 135 29 201 -46 91 -82 102 -331 102 l-200 0 0 118 c0 113 -1 120
-29 163 -42 67 -126 100 -200 78z"/>

</g>

</svg>

